<svg width="23" height="13" fill="none" xmlns="http://www.w3.org/2000/svg">
  <path
    d="M11.5 0c4.394 0 8.38 2.28 11.32 5.982.24.304.24.728 0 1.031C19.88 10.72 15.894 13 11.5 13S3.12 10.72.18 7.018a.828.828 0 0 1 0-1.031C3.12 2.28 7.106 0 11.5 0zm-.315 11.077c2.917.174 5.326-2.105 5.142-4.876-.15-2.284-2.103-4.135-4.512-4.278-2.917-.174-5.326 2.105-5.142 4.876.155 2.28 2.108 4.131 4.512 4.278zm.146-2.114c1.571.093 2.87-1.134 2.766-2.624-.08-1.23-1.134-2.226-2.432-2.306-1.572-.094-2.87 1.133-2.767 2.623.085 1.236 1.139 2.23 2.433 2.307z"
    fill="#237BEF"/>
</svg>
